<?xml version="1.0" encoding="UTF-8"?>
<svg id="Layer_1" data-name="Layer 1" xmlns="http://www.w3.org/2000/svg" viewBox="0 0 311.33 303.38">
  <path d="M241.41,150.25h42.45c1.82,0,4.11,4.41,2.33,6.07l-85.37,110.6c-3.71,1.2-6.53-.75-5.82-4.73l17.58-74.56h-39.25c-3.3,0-5.27-3.78-3.4-6.6,27.05-33.13,51.48-69.45,78.75-102.28,3.37-4.06,7.97-9.74,10.24-.99l-17.5,72.49ZM274.52,158.26h-39.25c-1.12,0-3.13-3.08-2.83-4.39l13.64-56.35-.39-2.26-64.09,84.37h37.65c.6,0,3.04,3.36,2.38,4.46l-14.13,61.22,67.02-87.04Z"/>
  <path d="M200.83,62.67v10.15c4.47.85,8.96,1.69,13.35,2.94s14.62,3.3,11.89,9.22c-1.93,4.17-11.93-1.02-15.4-1.97-28.26-7.68-59.39.15-80.33,20.51-1.87,1.81-6.82,8.57-8.24,9.38-1.61.92-4.65.92-5.67-.8-2.37-3.98,2.43-7.52,4.83-10.18l-6.13-6.13c-2.56,2.43-5.55,7.07-9.1,3.22-1.8-1.96-1.47-3.33,0-5.39,1.17-1.63,11.59-12.05,13.13-13.03,2.83-1.82,6.24-.11,6.36,3.23.09,2.58-3.3,4.49-4.77,6.35l6.13,5.63c13.66-11.66,30.25-20.5,48.33-22.45v-10.68h-8.81c-1.34,0-2.27-2.25-2.41-3.46-.3-2.54-.27-19.5.4-20.98s2.11-1.62,3.59-1.75c12.72-1.17,27.19.94,40.1,0,3.45-.05,4.2,2.07,4.51,5.11.38,3.79.46,12.82-.04,16.5-.18,1.32-1.38,4.59-2.89,4.59h-8.81ZM204.57,44.51h-33.11v10.15h33.11v-10.15ZM192.82,62.67h-9.61v9.61h9.61v-9.61Z"/>
  <path d="M150.82,125.87c-21.01,21.15-20.38,57,1.94,76.98,2.62,2.34,14.26,9.09,14.9,10.2,1.46,2.52-.06,5.8-2.93,6.08-2.1.21-6.77-2.83-8.72-4.05-35.02-21.9-38.35-72.41-6.46-98.75,12.14-10.03,31.86-16.6,47.56-13.37,4.83.99,4.92,6.79,1.19,7.66-3.12.72-8.85-.64-12.7-.41-12.63.73-25.91,6.73-34.8,15.67Z"/>
  <path d="M100.36,187.16c-1.13-.73-23.02.39-26.91-.06-5.49-.64-5.01-7.28.05-7.99,6-.84,22.55-.64,28.82-.05,1.16.11,2.42.2,3.42.85,1.71,1.11,3.34,9.16,4.29,11.73,9.4,25.31,29.41,44.32,55.43,51.9,2.99.87,9.06,1.53,11.3,2.58,3.62,1.71,2.54,7.23-1.43,7.59-2.1.19-8.95-1.62-11.36-2.29-30.69-8.47-55.54-33.47-63.62-64.28Z"/>
  <path d="M28.74,122.07l85.31-.13c5.7.13,7.33,6.38,1.63,8.04l-87.62-.02c-5.33-.62-4.36-7.53.67-7.89Z"/>
  <path d="M52.22,150.89l51.16-.13c5.28.57,5.42,7.41,0,8.03-15.49,1.8-34.36-1.38-50.22,0-4.77-.46-5.51-6.35-.94-7.91Z"/>
</svg>