<?xml version="1.0" encoding="UTF-8"?>
<svg id="Layer_1" data-name="Layer 1" xmlns="http://www.w3.org/2000/svg" viewBox="0 0 311.33 303.38">
  <path d="M41.84,143.7c3.01-48.86,39.55-92.17,86.94-103.89,11.92-2.95,28.6-4.7,40.72-2.87,8.8,1.33,6.53,9.56.5,9.45-8.18-.16-14.81-1.33-23.42-.48C50.88,55.3,16.1,179.12,93.5,236.92c73.9,55.19,178.15-3.85,169.53-95.24-1.76-18.71-9.11-38.35-20.72-52.96-.29,2.62.92,5.97-1.38,7.87-3.29,2.71-7.29.4-7.66-3.56s-.45-13.27.01-17.16c.34-2.85,1.96-4.03,4.72-4.29,5.84-.56,12.8.29,18.74.22,2.75,1.06,3.7,5.09,1.79,7.25-.27.3-2.33,1.56-2.49,1.56h-7.88c33.77,43.78,32.32,105.01-3.82,146.93-19.47,22.58-49.2,37.81-79.07,39.65h-16.22l-13.6-1.95c-45.96-8.55-83.13-45.73-91.68-91.72l-1.94-13.6c.24-5.33-.33-10.93,0-16.23Z"/>
  <path d="M151.67,65.86c87.3-5.78,126.01,109.23,53.13,157.71-71.71,47.7-161.19-28.8-125.95-107.53,1.75-3.91,6.28-15.3,11.88-11.56,5.07,3.39-1.45,10.63-3.32,14.71-16.41,35.9-3.26,79.05,30.72,98.94,46.99,27.51,107.27-1.16,115.1-54.91,8.83-60.55-52.89-107.34-108.66-81.21-2.23,1.04-8.08,4.95-9.63,5.25-5.08.99-7.65-4.81-3.68-8.21,8.39-7.19,29.47-12.47,40.42-13.2Z"/>
  <path d="M197.6,105.92c3.64-.7,6.93,3.76,4.7,6.99l-30.96,31.25c.17,2.53,1.45,5,1.42,7.79-.14,12.98-15.5,20.12-25.51,11.8-5.94-4.94-6.79-12.34-4.11-19.29-5.06-5.95-11.85-10.76-16.14-17.24-.76-4.14,2.78-6.82,6.55-5.19l16.28,15.75c5-1.91,9.66-1.92,14.68,0l30.49-30.38c.7-.55,1.74-1.32,2.6-1.48ZM155.24,145.59c-7.34,1.67-5.18,15.1,4.21,12.32,6.71-1.99,5.05-14.42-4.21-12.32Z"/>
  <path d="M155.69,83.4c2.6-.59,5.52.5,5.96,3.31.23,1.45.24,6.62-.07,7.99-.96,4.29-8.13,4.08-8.89-.84-.44-2.85-.6-9.64,2.99-10.46Z"/>
  <path d="M91.72,147.4c1.64-.37,7.91-.31,9.31.41,3.08,1.59,2.71,6.66-.44,8.01-2.18.94-8.61.93-10.52-.65-2.56-2.11-1.57-7.05,1.65-7.77Z"/>
  <path d="M214.71,147.41c3.03-.61,10.27-.78,10.91,3.3,1,6.43-6.02,6.15-10.57,5.62-5.21-.61-4.95-7.99-.34-8.92Z"/>
  <path d="M155.69,205.99c6.44-1.45,6.78,6.42,5.88,10.84-.98,4.84-7.9,4.51-8.81.46-.66-2.94-.86-10.45,2.93-11.3Z"/>
  <path d="M186.79,41.05c6.69-1.72,8.31,7.67,2.48,8.8s-7.45-7.53-2.48-8.8Z"/>
  <path d="M98.48,89.7c6.02-1.33,7.62,7.65,2.51,8.83-6.78,1.57-7.87-7.64-2.51-8.83Z"/>
</svg>