<?xml version="1.0" encoding="UTF-8"?>
<svg id="Layer_2" data-name="Layer 2" xmlns="http://www.w3.org/2000/svg" viewBox="0 0 20 20">
  <defs>
    <style>
      .cls-1 {
        fill: none;
      }

      .cls-2 {
        fill: #ebebeb;
      }
    </style>
  </defs>
  <g id="Layer_2-2" data-name="Layer 2">
    <g id="SVGRepo_iconCarrier" data-name="SVGRepo iconCarrier">
      <rect class="cls-1" width="20" height="20"/>
      <path class="cls-2" d="M12.7,10c0-1.5-1.2-2.7-2.7-2.7s-2.7,1.2-2.7,2.7,1.2,2.7,2.7,2.7,2.7-1.2,2.7-2.7ZM14.1,10c0,2.3-1.8,4.1-4.1,4.1s-4.1-1.8-4.1-4.1,1.8-4.1,4.1-4.1,4.1,1.8,4.1,4.1ZM15.2,5.7c0,.6-.4,1-1,1s-1-.4-1-1,.4-1,1-1,1,.5,1,1ZM10,3.4c-1.2,0-3.7-.1-4.7.3-.7.3-1.3.9-1.5,1.6-.4,1-.3,3.5-.3,4.7s-.1,3.7.3,4.7c.2.7.8,1.3,1.5,1.5,1,.4,3.6.3,4.7.3s3.7.1,4.7-.3c.7-.3,1.2-.8,1.5-1.5.4-1.1.3-3.6.3-4.7s.1-3.7-.3-4.7c-.2-.7-.8-1.3-1.5-1.5-1-.5-3.5-.4-4.7-.4ZM18,10v3.3c0,1.2-.4,2.4-1.3,3.4-.9.9-2.1,1.3-3.4,1.3h-6.6c-1.2,0-2.4-.4-3.4-1.3-.8-.9-1.3-2.1-1.3-3.4v-6.6c0-1.3.5-2.5,1.3-3.4,1-.8,2.2-1.3,3.4-1.3h6.6c1.2,0,2.4.4,3.4,1.3.8.9,1.3,2.1,1.3,3.4,0,0,0,3.3,0,3.3Z"/>
    </g>
  </g>
</svg>