<?xml version="1.0" encoding="UTF-8"?>
<svg id="Layer_2" data-name="Layer 2" xmlns="http://www.w3.org/2000/svg" viewBox="0 0 16 16">
  <defs>
    <style>
      .cls-1 {
        fill: #ebebeb;
      }
    </style>
  </defs>
  <g id="Layer_2-2" data-name="Layer 2">
    <g id="SVGRepo_iconCarrier" data-name="SVGRepo iconCarrier">
      <path class="cls-1" d="M14.72,0H1.37c-.17,0-.34.02-.51.08-.16.06-.31.15-.44.26-.13.12-.23.26-.3.41-.07.16-.11.32-.12.5v13.38c.01.36.16.7.41.96.25.25.6.4.96.41h13.35c.35-.02.68-.17.92-.42s.37-.6.36-.95V1.25c0-.17-.03-.33-.09-.49-.06-.15-.16-.3-.28-.41-.12-.12-.26-.21-.42-.27-.16-.06-.32-.09-.49-.08ZM5,13.34h-2.33v-7.13h2.33v7.13ZM3.89,5.13c-.16,0-.32-.02-.48-.08-.15-.06-.29-.15-.4-.27-.11-.12-.2-.25-.26-.41-.06-.15-.09-.31-.08-.48,0-.16.02-.33.08-.48.06-.15.15-.29.27-.41.12-.12.26-.21.41-.26.15-.06.32-.08.48-.08.16,0,.32.02.48.08.15.06.29.15.4.27.11.12.2.25.26.41.06.15.09.31.08.48,0,.16-.02.33-.08.48-.06.15-.15.29-.27.41-.12.12-.26.21-.41.26-.15.06-.32.08-.48.08ZM13.34,13.34h-2.34v-3.9c0-.93-.33-1.57-1.16-1.57-.26,0-.51.08-.72.23-.21.15-.37.36-.45.61-.07.18-.09.38-.08.57v4.06h-2.3v-7.13h2.3v1c.2-.38.51-.69.88-.9.37-.21.79-.32,1.22-.31,1.51,0,2.65,1,2.65,3.13v4.21Z"/>
    </g>
  </g>
</svg>