<?xml version="1.0" encoding="UTF-8"?>
<svg id="Layer_2" data-name="Layer 2" xmlns="http://www.w3.org/2000/svg" viewBox="0 0 505.01 78.77">
  <g id="Layer_2-2" data-name="Layer 2">
    <g>
      <path d="M505.01,49.38c-4.9,16.93-32.56,16.14-35.94-1.47l9.33-.55c2.04,8.14,16.8,8.87,16.5-.25-1.71-6.02-22.28-3.01-24.59-14.26-3.94-19.19,31.38-22.08,33.7-3.23-2.73-.38-6.88.69-9.32-.15-1.52-.53-1.91-3.13-3.88-4.06-8.23-3.89-16.07,4.1-7.77,7.69,8.13,3.51,18.75,1.05,21.97,12.33v3.95Z"/>
      <polygon points="9.99 0 9.41 60.26 0 60.25 0 0 9.99 0"/>
      <polygon points="371.27 0 371.28 60.25 361.87 60.26 361.29 0 371.27 0"/>
      <path d="M465.09,62.72c-3.68,21.99-42.41,21.6-44.91-2.46l9.35.12c6.68,15.37,26.57,11.83,26.57-5.06-9.81,4.84-19.34,6.1-28.41-1.02-21.69-17.02,5.55-50.42,28.41-32.56l.55-3.04,8.44.07v43.95ZM439.86,25.91c-14.84,3.02-11.04,26.38,4.32,25.01,18.2-1.62,14.32-28.8-4.32-25.01Z"/>
      <path d="M121.76,56.3v19.75h-9.98V19.26c2.38-2.71,6.7-1.11,9.99-1.49-1.48,7.92,5.22.43,9.91-.54,10.51-2.17,23.29,4.67,25.57,15.31,4.83,22.55-16.73,37.08-35.49,23.76ZM131.48,26.91c-15.01,2.75-10.89,27.58,5.5,25.23s14.64-28.92-5.5-25.23Z"/>
      <path d="M321.37,57.28v18.77h-9.98V17.78l8.36.12,2.11,3.83c6.59-5.79,15.6-6.3,23.36-2.37,21.22,10.77,11.66,47.26-15.92,41.44-3.21-.68-4.97-2.9-7.93-3.51ZM330.08,26.9c-14.3,2.93-10.82,27.46,5.49,25.26,16.66-2.25,14.94-29.44-5.49-25.26Z"/>
      <path d="M275.46,60.25h-9.99s0-3.95,0-3.95c-15.97,11.84-36.91,1.91-35.96-18.31.87-18.54,20.54-27.19,35.46-16.24l.5-3.97h9.99v42.48ZM248.24,26.9c-14.1,2.88-10.56,27.43,5.49,25.26,16.69-2.26,15.12-29.47-5.49-25.26Z"/>
      <path d="M225.56,41.48h-35.93c1.27,4.91,7.83,10.23,13.09,10.3,8.81.13,11.86-4.88,11.86-4.88h9.97c-12.43,28.59-56.14,10.27-42.09-17.95,10.88-21.85,45.89-11.8,43.09,12.52ZM214.58,33.58c-4.76-9.71-18.74-9.48-23.95,0h23.95Z"/>
      <path d="M82.6,17.05c16.32-2.16,29.8,12.74,24.91,28.6-8.08,26.22-49.41,17.84-44.39-11.34,1.5-8.71,10.84-16.12,19.48-17.26ZM83.6,25.87c-14.43,2.11-14.44,24.62-.16,26.39,21.23,2.65,18.82-29.12.16-26.39Z"/>
      <path d="M32.7,17.05c31.13-4.23,35.82,40.47,7.65,44.09-32.1,4.13-35.42-40.32-7.65-44.09ZM34.71,25.87c-16.79,2.28-14.05,28.35,3.61,26.41,16.37-1.8,13.85-28.77-3.61-26.41Z"/>
      <path d="M386.24,17.78v27.16c0,1.36,2.64,4.98,4.03,5.89,6.45,4.2,15.93-.99,15.93-7.86v-25.19c3.29.37,7.6-1.23,9.98,1.48v40.99h-9.99s-.49-3.95-.49-3.95c-7.66,8.37-22.99,6.16-27.64-4.27-.34-.76-1.81-4.83-1.81-5.12v-29.14h9.98Z"/>
      <path d="M280.45,19.26c.76-2.44,7.7-1.25,9.99-1.49l.49,4.94c3.55-4.3,9.04-5.36,14.48-4.94v8.9c-3.48,0-7.89-.44-10.93,1.53-1.38.89-4.05,5.72-4.05,6.86v25.19h-9.98V19.26Z"/>
    </g>
  </g>
</svg>