<?xml version="1.0" encoding="UTF-8"?>
<svg id="Layer_1" data-name="Layer 1" xmlns="http://www.w3.org/2000/svg" viewBox="0 0 311.33 303.38">
  <path d="M104.7,263.17c-2.45.24-7.15.24-9.59,0-19.22-1.87-35.78-19.43-37.09-38.55-2.58-37.68,41.33-59.3,69.8-34.66v-95.65c0-1.44,2.7-4.44,4.2-4.96l84.75-35.15c8.53-1.73,12.29,9.31,4.55,13.26l-79.33,33.16-.19,124c-1.38,19.14-17.81,36.67-37.09,38.55ZM97.2,193.57c-38.82,3.85-29.24,64.02,9.43,54.75,33.06-7.92,24.64-58.12-9.43-54.75Z"/>
  <path d="M239.46,141.15v-67.76c0-1.09,2.09-3.7,3.07-4.34,4.49-2.92,10.34-.03,10.88,5.21v101.96c-3.99,43.64-65.6,52.72-81.01,11.23-15.34-41.3,34.11-74.7,67.05-46.3ZM208.85,144.76c-38.82,3.85-29.24,64.02,9.43,54.75,33.06-7.92,24.64-58.12-9.43-54.75Z"/>
  <path d="M245.02,40.16c9.81-1.59,11.25,12.37,2.84,13.73-9.81,1.59-11.25-12.37-2.84-13.73Z"/>
</svg>