<?xml version="1.0" encoding="UTF-8"?>
<svg id="Layer_2" data-name="Layer 2" xmlns="http://www.w3.org/2000/svg" viewBox="0 0 20 20">
  <defs>
    <style>
      .cls-1 {
        fill: #ebebeb;
        fill-rule: evenodd;
      }
    </style>
  </defs>
  <g id="Layer_2-2" data-name="Layer 2">
    <g id="SVGRepo_iconCarrier" data-name="SVGRepo iconCarrier">
      <g id="Page-1">
        <g id="Dribbble-Light-Preview">
          <g id="icons">
            <path id="pinterest-_180_" data-name="pinterest-[#180]" class="cls-1" d="M9.88,0C4.4,0,0,4.43,0,9.96c0,4.1,2.41,7.53,5.89,9.12,0-1.87-.01-1.63,1.41-7.7-.78-1.58-.17-4.18,1.58-4.18,2.43,0,.78,3.6.5,5.02-.25,1.09.58,1.93,1.58,1.93,1.91,0,3.15-2.43,3.15-5.27,0-2.18-1.49-3.77-4.07-3.77-4.58,0-5.74,5.1-4.15,6.69.4.6,0,.63,0,1.42-.28.84-2.49-.38-2.49-3.51,0-2.85,2.32-6.19,7.05-6.19,3.73,0,6.22,2.76,6.22,5.69,0,3.93-2.16,6.78-5.31,6.78-1.08,0-2.07-.59-2.41-1.26-.6,2.35-.72,3.53-1.66,4.85.91.25,1.83.42,2.82.42,5.48,0,9.88-4.43,9.88-9.96-.25-5.61-4.65-10.04-10.12-10.04"/>
          </g>
        </g>
      </g>
    </g>
  </g>
</svg>