<?xml version="1.0" encoding="UTF-8"?>
<svg id="Layer_2" data-name="Layer 2" xmlns="http://www.w3.org/2000/svg" viewBox="0 0 17.96 17.96">
  <defs>
    <style>
      .cls-1 {
        fill: #ebebeb;
      }
    </style>
  </defs>
  <g id="Layer_2-2" data-name="Layer 2">
    <g id="SVGRepo_iconCarrier" data-name="SVGRepo iconCarrier">
      <g>
        <path class="cls-1" d="M11.89,6.33c.22,0,.4-.19.4-.41s-.18-.4-.4-.41c-.22,0-.41.18-.41.4,0,.23.19.41.41.41Z"/>
        <path class="cls-1" d="M11.14,8.26c-.61-.34-1.28-.51-1.98-.56-.83-.06-1.63.04-2.4.36-.48.2-.91.47-1.24.88-.48.6-.5,1.33-.05,1.95.24.32.54.56.89.76.74.41,1.54.56,2.28.57.78,0,1.45-.11,2.09-.38.48-.2.91-.47,1.23-.89.48-.61.49-1.32.04-1.95-.23-.32-.54-.55-.88-.74ZM6.72,9.47c0-.42.34-.75.76-.74.41,0,.73.35.73.76,0,.41-.35.74-.77.74-.4-.01-.73-.35-.72-.75ZM10.32,11.29c-.25.23-.55.36-.87.42-.23.05-.47.07-.7.1-.4-.02-.79-.08-1.14-.26-.13-.07-.26-.15-.37-.25-.14-.12-.14-.29-.04-.41.11-.12.28-.11.41,0,.19.17.42.25.67.3.43.08.87.06,1.28-.1.14-.05.26-.14.39-.22.13-.09.29-.09.39.02.11.12.1.28-.02.39ZM10.1,10.22c-.4,0-.73-.35-.73-.75,0-.42.35-.75.78-.74.4.01.73.35.72.76,0,.42-.35.75-.77.74Z"/>
        <path class="cls-1" d="M12.03,8.21c.13.14.26.27.38.41.11.15.21.31.31.46.14-.19.13-.48-.03-.68-.16-.2-.44-.28-.66-.19Z"/>
        <path class="cls-1" d="M5.49,8.21c-.22-.09-.48-.01-.65.18s-.18.48-.04.69c.16-.34.4-.62.68-.87Z"/>
        <path class="cls-1" d="M16.56,0H1.4C.63,0,0,.63,0,1.4v15.15c0,.78.63,1.4,1.4,1.4h15.15c.78,0,1.4-.63,1.4-1.4V1.4c0-.78-.63-1.4-1.4-1.4ZM13.36,8.91s-.01.02-.01.02c-.05.31-.2.55-.44.75-.02.01-.02.05-.02.08.04.44-.06.85-.28,1.22-.3.52-.74.88-1.26,1.16-.7.39-1.46.57-2.26.62-.92.05-1.8-.08-2.64-.46-.56-.25-1.06-.59-1.42-1.09-.32-.44-.48-.93-.43-1.47,0-.03-.02-.06-.05-.08-.14-.12-.26-.27-.33-.45-.04-.1-.06-.2-.09-.3v-.27c.06-.15.09-.32.17-.46.32-.55,1.05-.72,1.59-.38.06.04.09.04.15,0,.65-.38,1.35-.57,2.09-.64.11-.01.22-.02.33-.02.06,0,.08-.02.1-.08.22-.64.45-1.28.67-1.92.01-.03.02-.06.04-.09.24.06.47.11.71.17.32.08.64.15.96.23.06.01.09,0,.12-.05.24-.37.67-.53,1.08-.4.41.12.68.5.68.93,0,.47-.37.88-.82.93-.5.06-.96-.25-1.06-.73-.02-.1-.06-.14-.16-.17-.38-.08-.76-.18-1.15-.27-.17.48-.33.95-.5,1.43.21.03.41.05.62.08.6.1,1.17.29,1.7.6.05.03.08.03.13,0,.71-.46,1.61-.06,1.76.76,0,.01.01.03.02.04-.01.09-.01.18-.01.28Z"/>
      </g>
    </g>
  </g>
</svg>