<?xml version="1.0" encoding="UTF-8"?>
<svg id="Layer_2" data-name="Layer 2" xmlns="http://www.w3.org/2000/svg" viewBox="0 0 600 695.39">
  <defs>
    <style>
      .cls-1 {
        fill: none;
        stroke: #2b2b2b;
        stroke-linecap: round;
        stroke-linejoin: round;
        stroke-width: 66.67px;
      }
    </style>
  </defs>
  <g id="Layer_1-2" data-name="Layer 1">
    <path class="cls-1" d="M276.73,653.83c7.38,4.3,11.07,6.46,16.28,7.57,4.04.87,9.94.87,13.98,0,5.21-1.12,8.9-3.27,16.28-7.57,64.93-37.88,243.4-156.88,243.4-320.5v-180c0-18.6,0-27.9-3.58-34.98-3.17-6.28-8.13-11.3-14.38-14.55-7.04-3.66-16.5-3.77-35.42-4-99.05-1.17-156.17-9.35-213.29-66.47-57.12,57.12-114.24,65.3-213.29,66.47-18.92.22-28.37.34-35.42,4-6.25,3.25-11.2,8.26-14.38,14.55-3.58,7.09-3.58,16.39-3.58,34.98v180c0,163.61,178.47,282.61,243.4,320.5Z"/>
  </g>
</svg>