<?xml version="1.0" encoding="UTF-8"?>
<svg id="Layer_2" data-name="Layer 2" xmlns="http://www.w3.org/2000/svg" viewBox="0 0 26.04 22.86">
  <g id="Layer_2-2" data-name="Layer 2">
    <path d="M26.04,3.99l-3.04,10.57c-.11.39-.33.63-.75.67h-13.89c-.97.1-.97,1.42,0,1.52h13.98c.59.1.85.81.46,1.27-.06.07-.33.26-.4.26h-1.4l.64.19c2.24,1.06,1.47,4.47-1.03,4.38s-3.03-3.37-.87-4.38l.64-.19h-10.17l.64.19c2.24,1.06,1.47,4.47-1.03,4.38s-3.03-3.37-.87-4.38l.64-.19h-1.5c-.45,0-1.16-.45-1.45-.79-1.03-1.2-.58-2.96.82-3.62L4.73,1.51l-4.17-.03C-.15,1.26-.2.32.48.02l5.06-.02c.28.1.43.26.53.54l.54,2.49,18.91.03c.27.09.39.29.52.53v.41ZM24.26,4.55H6.97l2.07,9.16h12.63s2.6-9.16,2.6-9.16ZM10.46,20.03c-.7-.7-1.79.38-1.08,1.08s1.79-.38,1.08-1.08ZM21.24,20.03c-.7-.7-1.79.38-1.08,1.08s1.79-.38,1.08-1.08Z"/>
  </g>
</svg>