<?xml version="1.0" encoding="UTF-8"?>
<svg id="Layer_1" data-name="Layer 1" xmlns="http://www.w3.org/2000/svg" viewBox="0 0 311.33 303.38">
  <path d="M273.84,208.22c-.44,4.14-3.12,10.25-5.44,13.74-7.56,11.39-22.22,16.98-35.39,12.66-13.26,17.94-40.02,19.91-55.53,3.71-13.71,7.51-30.03,7.51-43.74,0-15.53,16.17-42.26,14.25-55.53-3.71-25.95,7.76-48.5-18.05-38.41-43.16,5.16-12.83,19.79-21.48,33.55-19.34,8.44-16.48,31.45-21.77,46.66-11.23,1.89,1.31,3.33,3.08,5.27,4.29,17.16-15.96,43.47-15.92,60.67,0,1.94-1.21,3.37-2.97,5.27-4.29,15.2-10.54,38.21-5.23,46.66,11.23,15.4-2.16,30.18,7.68,34.59,22.46.42,1.4,1.24,4.01,1.38,5.32.22,2.04.22,6.28,0,8.32ZM233.35,178.94c-1.2-1.2-2.73-5.05-4.33-6.99-9.55-11.57-26.58-11.81-37.41-1.88-1.58,1.45-2.8,4.6-5.36,4.73-2.32.13-4.66-3.51-6.41-4.93-13.58-11.08-31.08-12.67-45.63-2.25-2.11,1.51-7.12,7.08-8.92,7.18-2.71.15-4.11-3.29-5.68-4.73-10.83-9.92-27.86-9.69-37.41,1.88-2.51,3.03-3.45,8.21-7.61,8.09-6.47-.19-8.47-1.49-15.2,1.44-25.25,10.97-15.02,49.87,12.35,47.02,2.51-.26,7.33-2.59,9.08-2.06,1.24.37,6.14,6.96,8.06,8.6,9.8,8.39,24.06,9.1,34.84,2.03,2.29-1.5,7.28-7.45,9.07-7.57s5.46,2.72,7.43,3.62c11.27,5.15,22.03,4.23,32.96-1.08,1.63-.79,3.33-2.67,5.28-2.54,1.79.12,6.78,6.07,9.07,7.57,10.77,7.06,25.02,6.37,34.84-2.03,1.92-1.64,6.81-8.23,8.06-8.6,1.81-.54,4.15,1.01,6.01,1.43,21.02,4.78,37.33-17.62,26.57-36.29-4.09-7.1-12.42-12.39-20.79-12.37-2.75,0-6.62,1.98-8.85-.25Z"/>
  <path d="M164.04,80.32c-1.81,1.94-2.72,11.28-3.66,14.14-2.56,7.76-11.98-3.93-15.9-4.8-16.11,9.87-32.7,19-49.99,26.68l-17.86,7.31c4.28,1.76,8.47,3.8,12.81,5.44,24.59,9.25,51.52,12.07,77.33,6.44,1.76-.38,8.8-1.88,9.64-2.83,1.66-1.91,3.58-11.73,5.16-14.71,3.21-6.05,8.95,1.54,12.4,3.55.68.4,2.11,1.32,2.74,1.47,1.11.27,6.05-3.88,7.17-4.89,6.05-5.46,10.71-12.1,12.7-20.1l7.37-4.4c.42,12.86-8.12,24.67-17.8,32.33-1.35,1.07-6.14,4.7-7.47,5-4.56,1.05-8.12-3.73-12.14-4.99-1.1,3.47-2.12,8.55-3.81,11.68-.54,1-1.19,1.49-2.2,1.96-3.79,1.77-12.27,3.38-16.62,4.16-31.37,5.69-63.73-.17-92.08-14.17-3.87-1.91-13.52-5.42-7.85-10.5,28.53-7.62,54.24-22.6,79.48-37.4,2.43-2.38,9.92,5.61,10.74,4.99.91-3.04,2.33-10.61,4.84-12.49,1.51-1.12,7.38-2.86,9.48-3.45,16.63-4.73,37.26-5.51,49.65,8.53,7.12-5.3,13.54-11.33,19.45-17.94,3.6-1.9,7.14,1.46,5.19,5.2-.34.66-2.89,3.4-3.62,4.23-20.06,22.54-57.82,38.95-86.64,46.4-2.94.76-11.71,3.36-14.07,2.6-2.95-.94-3.1-5.57-.31-6.83,25.73-5.94,51.12-14.81,73.3-29.26-2.46-3.97-7.8-6.13-12.18-7.21-11.7-2.88-24.28-.56-35.27,3.87Z"/>
  <path d="M239.81,187.57c3.38-3.1,11.94,1.38,14.65,4.22,3.24,3.4,8.47,16.05.66,15.98-4.38-.04-2.97-6.4-5.52-9.73-3.43-4.49-5.48-2.7-8.99-4.4-2.07-1.01-2.54-4.47-.8-6.07Z"/>
  <path d="M71.41,187.57c1.74,1.6,1.27,5.06-.8,6.07-3.51,1.71-5.56-.09-8.99,4.4-2.77,3.62-.83,9.77-6,9.73-7.19-.06-1.9-12.78,1.14-15.98,2.68-2.81,11.3-7.29,14.65-4.22Z"/>
  <path d="M91.29,218.46c3.42-.71,6.12,5.32,9.8,7.1s11.35.56,10.09,6.35c-1.39,6.37-14.52.21-17.68-2.45-2.66-2.24-8.59-9.67-2.22-11Z"/>
  <path d="M218.29,218.46c1.32-.27,2.44.11,3.38,1.05,3.66,3.65-3.55,10.05-6.63,11.9-3.43,2.05-15.43,6.37-15.13-.77.18-4.19,4.96-3.33,7.89-4.16,5.25-1.49,8.22-7.54,10.49-8.02Z"/>
</svg>