<?xml version="1.0" encoding="UTF-8"?>
<svg id="Layer_1" data-name="Layer 1" xmlns="http://www.w3.org/2000/svg" viewBox="0 0 311.33 303.38">
  <path d="M161.51,53.92c23.84-2.54,24.08,27.27,24.71,43.08,1.42,35.54,1.42,73.88,0,109.41-.46,11.49.22,26.54-7.57,35.9-20.77,25-53.69-21.2-68.34-33.79-21.6-18.56-54.82,3.24-69.75-23.47-6.13-10.97-5.53-37.52-4.65-50.39,1.06-15.45,9.73-27.98,25.56-30.47,18.03-2.84,33.33,4.02,48.83-9.3,13.2-11.35,33.61-39.1,51.2-40.97ZM162.01,71.18c-9.65,1.61-35.63,33.53-46.53,40.93-16.01,10.85-29.11,6.95-46.81,8.18-6.36.44-11.48,1.5-14.14,7.86-2.8,6.69-2.42,30.41-1.86,38.51.28,4.03,1.61,10.27,4.71,13.1,5.67,5.18,23.93,2.93,31.73,3.36,30.9,1.7,40.22,23.68,61.27,41.38,2.61,2.19,11.81,10.36,15.18,7.35,4.51-4.02,3.72-27.44,3.9-33.81.86-30.79.86-61.87,0-92.65-.26-9.2.86-22.05-2.35-30.65-1.16-3.11-1.58-4.14-5.1-3.55Z"/>
  <path d="M244.26,87.4c6.08-.6,10.7,6.54,13.93,10.94,24.35,33.23,23.64,76.71-1.8,109.11-1.81,2.3-5.26,6.85-7.84,7.87-7.07,2.78-12.88-3.14-11.39-10.35.42-2.06,8.36-10.88,10.25-13.84,15.68-24.42,15.56-54.85-.21-79.2-1.88-2.9-9.62-11.44-10.05-13.52-1.05-5.11,1.63-10.49,7.1-11.03Z"/>
  <path d="M209.66,109.93c6.97-1.46,10.44,4.87,13.33,10,11.13,19.77,11.14,43.77,0,63.55-3.45,6.13-9.77,15.08-17.32,7.71-5.78-5.64.09-11.34,2.66-16.09,7.35-13.59,8.36-28.76,1.93-42.96-2.68-5.92-9.8-12.14-5.51-18.75.86-1.33,3.37-3.14,4.91-3.46Z"/>
</svg>