<?xml version="1.0" encoding="UTF-8"?>
<svg id="Layer_2" data-name="Layer 2" xmlns="http://www.w3.org/2000/svg" viewBox="0 0 716.67 716.67">
  <defs>
    <style>
      .cls-1 {
        fill: none;
        stroke: #2b2b2b;
        stroke-miterlimit: 133.33;
        stroke-width: 50px;
      }
    </style>
  </defs>
  <g id="Layer_1-2" data-name="Layer 1">
    <circle class="cls-1" cx="358.33" cy="358.33" r="333.33"/>
    <path class="cls-1" d="M310.89,231.81c21.11-37.87,31.67-56.81,47.45-56.81s26.34,18.94,47.45,56.81l5.46,9.8c6,10.76,9,16.14,13.67,19.69,4.68,3.55,10.5,4.87,22.15,7.5l10.6,2.4c41,9.28,61.49,13.91,66.37,29.6,4.88,15.68-9.1,32.02-37.04,64.7l-7.23,8.45c-7.94,9.29-11.91,13.93-13.7,19.68-1.79,5.74-1.19,11.94.01,24.33l1.09,11.28c4.23,43.6,6.34,65.41-6.43,75.1-12.77,9.69-31.96.86-70.34-16.82l-9.93-4.57c-10.91-5.02-16.36-7.53-22.14-7.53s-11.23,2.51-22.14,7.53l-9.93,4.57c-38.38,17.67-57.57,26.51-70.34,16.82-12.77-9.69-10.65-31.49-6.43-75.1l1.09-11.28c1.2-12.39,1.8-18.59.01-24.33-1.79-5.75-5.76-10.39-13.7-19.68l-7.23-8.45c-27.95-32.68-41.92-49.02-37.04-64.7,4.88-15.68,25.37-20.32,66.37-29.6l10.61-2.4c11.65-2.64,17.47-3.95,22.15-7.5,4.68-3.55,7.68-8.93,13.67-19.69l5.46-9.8Z"/>
  </g>
</svg>