<?xml version="1.0" encoding="UTF-8"?>
<svg id="Layer_2" data-name="Layer 2" xmlns="http://www.w3.org/2000/svg" viewBox="0 0 11.99 13.79">
  <defs>
    <style>
      .cls-1 {
        fill: #ebebeb;
      }
    </style>
  </defs>
  <g id="Layer_2-2" data-name="Layer 2">
    <g id="SVGRepo_iconCarrier" data-name="SVGRepo iconCarrier">
      <path class="cls-1" d="M6.3.01c.75-.01,1.5,0,2.25-.01.02.93.4,1.78,1.01,2.4h0c.65.58,1.49.96,2.42,1.03h.01v2.32c-.88-.02-1.71-.22-2.45-.57l.04.02c-.36-.17-.67-.35-.96-.55l.02.02c0,1.68,0,3.36-.01,5.03-.05.85-.33,1.63-.79,2.28h0c-.76,1.07-1.99,1.79-3.39,1.83h0c-.06,0-.12,0-.19,0-.8,0-1.54-.22-2.17-.61h.02C.96,12.5.16,11.32.01,9.93v-.02c-.01-.29-.02-.57,0-.86.23-2.2,2.07-3.9,4.31-3.9.25,0,.5.02.74.06h-.03c.01.85-.02,1.7-.02,2.55-.19-.07-.42-.11-.65-.11-.86,0-1.59.55-1.86,1.32h0c-.06.21-.1.44-.1.67,0,.09,0,.19.02.28h0c.15.93.96,1.64,1.93,1.64.03,0,.06,0,.08,0h0c.67-.02,1.26-.38,1.59-.92h0c.12-.18.21-.39.24-.61h0c.06-1.04.03-2.06.04-3.09,0-2.32,0-4.63.01-6.94h0Z"/>
    </g>
  </g>
</svg>